<svg width="21" height="20" viewBox="0 0 21 20" fill="none" xmlns="http://www.w3.org/2000/svg">
<path d="M9.45829 9L15.7083 9C15.9846 9 16.2495 9.10536 16.4449 9.29289C16.6402 9.48043 16.75 9.73478 16.75 10C16.75 10.2652 16.6402 10.5196 16.4449 10.7071C16.2495 10.8946 15.9846 11 15.7083 11L9.45829 11C9.18202 11 8.91707 10.8946 8.72172 10.7071C8.52637 10.5196 8.41663 10.2652 8.41663 10C8.41663 9.73478 8.52637 9.48043 8.72172 9.29289C8.91707 9.10536 9.18202 9 9.45829 9ZM5.29163 5L15.7083 5C15.9846 5 16.2495 5.10536 16.4449 5.29289C16.6402 5.48043 16.75 5.73478 16.75 6C16.75 6.26522 16.6402 6.51957 16.4449 6.70711C16.2495 6.89464 15.9846 7 15.7083 7L5.29163 7C5.01536 7 4.7504 6.89464 4.55505 6.70711C4.3597 6.51957 4.24996 6.26522 4.24996 6C4.24996 5.73478 4.3597 5.48043 4.55505 5.29289C4.7504 5.10536 5.01536 5 5.29163 5ZM3.20829 0L17.7916 0C18.6204 0 19.4153 0.316071 20.0013 0.87868C20.5874 1.44129 20.9166 2.20435 20.9166 3L20.9166 13C20.9166 13.7956 20.5874 14.5587 20.0013 15.1213C19.4153 15.6839 18.6204 16 17.7916 16L5.71871 16L1.86454 19.71C1.76721 19.8027 1.65178 19.876 1.52486 19.9258C1.39795 19.9755 1.26205 20.0008 1.12496 20C0.988316 20.0034 0.852749 19.976 0.729126 19.92C0.538897 19.845 0.376057 19.7176 0.261126 19.5539C0.146194 19.3901 0.0843182 19.1974 0.0832901 19L0.0832901 3C0.083292 2.20435 0.412531 1.44129 0.998583 0.87868C1.58463 0.316071 2.37949 0 3.20829 0ZM2.16662 16.59L4.55204 14.29C4.64938 14.1973 4.76481 14.124 4.89172 14.0742C5.01864 14.0245 5.15453 13.9992 5.29163 14L17.7916 14C18.0679 14 18.3328 13.8946 18.5282 13.7071C18.7235 13.5196 18.8333 13.2652 18.8333 13L18.8333 3C18.8333 2.73478 18.7235 2.48043 18.5282 2.29289C18.3328 2.10536 18.0679 2 17.7916 2L3.20829 2C2.93202 2 2.66707 2.10536 2.47172 2.29289C2.27637 2.48043 2.16662 2.73478 2.16662 3L2.16662 16.59Z" fill="#3A3947"/>
</svg>
