<svg width="53" height="32" viewBox="0 0 53 32" fill="none" xmlns="http://www.w3.org/2000/svg">
<path d="M48.75 27.9354V24.8314C48.7418 20.1641 46.6183 15.6691 42.7994 12.2351C38.9804 8.80107 33.7439 6.67796 28.125 6.28546V3.10393H33.75V0H18.75V3.10393H24.375V6.28546C18.7561 6.67796 13.5196 8.80107 9.70063 12.2351C5.88166 15.6691 3.7582 20.1641 3.75 24.8314V27.9354H0V31.0393H52.5V27.9354H48.75ZM26.25 9.31179C30.5702 9.31672 34.7563 10.5543 38.1027 12.8159C41.4492 15.0775 43.7513 18.2248 44.6213 21.7275H7.87875C8.74866 18.2248 11.0508 15.0775 14.3973 12.8159C17.7437 10.5543 21.9298 9.31672 26.25 9.31179ZM7.5 24.8314H45V27.9354H7.5V24.8314Z" fill="white"/>
</svg>
