<svg width="53" height="32" viewBox="0 0 53 32" fill="none" xmlns="http://www.w3.org/2000/svg">
<path d="M48.75 28.7552V25.6513C48.7418 20.9839 46.6183 16.4889 42.7994 13.0549C38.9804 9.62089 33.7439 7.49779 28.125 7.10528V3.92375H33.75V0.819824H18.75V3.92375H24.375V7.10528C18.7561 7.49779 13.5196 9.62089 9.70063 13.0549C5.88166 16.4889 3.7582 20.9839 3.75 25.6513V28.7552H0V31.8591H52.5V28.7552H48.75ZM26.25 10.1316C30.5702 10.1365 34.7563 11.3741 38.1027 13.6357C41.4492 15.8973 43.7513 19.0447 44.6213 22.5473H7.87875C8.74866 19.0447 11.0508 15.8973 14.3973 13.6357C17.7437 11.3741 21.9298 10.1365 26.25 10.1316ZM7.5 25.6513H45V28.7552H7.5V25.6513Z" fill="white"/>
</svg>
