<svg width="60" height="60" viewBox="0 0 60 60" fill="none" xmlns="http://www.w3.org/2000/svg">
<path d="M54 20C53.6953 20.0012 53.3943 19.9328 53.12 19.8L30 7.99999L6.87999 19.72C6.38669 19.9534 5.82088 19.9813 5.30703 19.7975C4.79318 19.6137 4.37338 19.2333 4.13999 18.74C3.9066 18.2467 3.87873 17.6809 4.06252 17.167C4.2463 16.6532 4.62669 16.2334 5.11999 16L30 3.67999L54.88 16C55.4044 16.1225 55.8595 16.4467 56.1467 16.9023C56.4338 17.3579 56.53 17.9083 56.4142 18.4343C56.2985 18.9603 55.9803 19.4196 55.5284 19.7126C55.0765 20.0056 54.5274 20.1089 54 20ZM20 40H7.99999V52H20V40ZM36 40H24V52H36V40ZM52 40H40V52H52V40ZM44 24H32V36H44V24ZM28 24H16V36H28V24Z" fill="white"/>
</svg>
