<svg width="44" height="25" viewBox="0 0 44 25" fill="none" xmlns="http://www.w3.org/2000/svg">
<path d="M30.0701 24.5152C30.0054 24.4548 29.9541 24.3831 29.919 24.3042C29.884 24.2253 29.866 24.1407 29.866 24.0552C29.866 23.9698 29.884 23.8852 29.919 23.8063C29.9541 23.7273 30.0054 23.6556 30.0701 23.5952L41.4105 13.003L1.65886 13.003C1.47425 13.003 1.29721 12.9345 1.16668 12.8126C1.03614 12.6906 0.962807 12.5253 0.962807 12.3529C0.962807 12.1804 1.03614 12.0151 1.16668 11.8931C1.29721 11.7712 1.47425 11.7027 1.65886 11.7027L41.4105 11.7027L30.0701 1.11046C30.0054 1.05006 29.9541 0.978347 29.9191 0.899426C29.8841 0.820504 29.8661 0.735916 29.8661 0.650493C29.8661 0.565069 29.8841 0.480481 29.9191 0.40156C29.9541 0.322638 30.0054 0.250928 30.0701 0.190525C30.1348 0.130121 30.2116 0.0822058 30.2961 0.0495155C30.3805 0.0168252 30.4711 0 30.5626 0C30.654 0 30.7446 0.0168252 30.8291 0.0495155C30.9136 0.0822058 30.9904 0.130121 31.055 0.190525L43.5839 11.8929C43.6487 11.9533 43.7 12.025 43.735 12.1039C43.7701 12.1828 43.7881 12.2674 43.7881 12.3529C43.7881 12.4383 43.7701 12.5229 43.735 12.6018C43.7 12.6807 43.6487 12.7524 43.5839 12.8128L31.055 24.5152C30.9904 24.5756 30.9136 24.6236 30.8291 24.6563C30.7446 24.689 30.654 24.7059 30.5626 24.7059C30.4711 24.7059 30.3805 24.689 30.296 24.6563C30.2115 24.6236 30.1348 24.5756 30.0701 24.5152Z" fill="white"/>
</svg>
