<svg width="53" height="42" viewBox="0 0 53 42" fill="none" xmlns="http://www.w3.org/2000/svg">
<path id="Vector" d="M49.7948 8.86662L16.2213 15.7236H51.1537C51.6434 15.7236 52.113 15.8614 52.4592 16.1068C52.8055 16.3522 53 16.6851 53 17.0321V35.3522C53 37.0875 52.0274 38.7517 50.2961 39.9787C48.5649 41.2057 46.2168 41.8951 43.7684 41.8951H10.5347C8.08759 41.8937 5.74139 41.2037 4.01173 39.9769C2.28207 38.75 1.31047 37.0866 1.31047 35.3522V17.2179L0.361461 14.8808C0.0254939 14.0551 -0.0776766 13.1906 0.0578427 12.3366C0.193362 11.4826 0.564916 10.6559 1.15128 9.90375C1.73765 9.15156 2.52735 8.48861 3.47527 7.95276C4.42318 7.41691 5.51076 7.01866 6.67587 6.78075L38.6061 0.256185C39.7711 0.0180683 40.9909 -0.0550531 42.1958 0.040996C43.4008 0.137045 44.5672 0.400383 45.6285 0.815971C46.6897 1.23156 47.6251 1.79125 48.3812 2.46309C49.1372 3.13493 49.6991 3.90574 50.0348 4.73152L51.0577 7.24398C51.1254 7.40929 51.1465 7.58246 51.1197 7.75355C51.0928 7.92464 51.0186 8.0903 50.9013 8.24103C50.784 8.39176 50.6259 8.52461 50.436 8.63196C50.2461 8.73931 50.0282 8.81905 49.7948 8.86662ZM4.41228 15.4095L6.65372 14.9515L11.9785 8.4217L7.69504 9.29845C6.28487 9.58679 5.09383 10.26 4.38347 11.1703C3.67311 12.0805 3.50153 13.1534 3.90639 14.1533L4.41598 15.4095H4.41228ZM11.768 13.9073L19.5964 12.3056L24.9249 5.77052L17.078 7.37484C17.0546 7.4123 17.0287 7.44898 17.0005 7.48476L11.7717 13.9099L11.768 13.9073ZM32.5465 9.66223L37.8713 3.12458L30.0207 4.7289C29.9925 4.77639 29.9604 4.8227 29.9247 4.86761L24.7218 11.2639L32.5502 9.66485L32.5465 9.66223ZM42.4575 2.72154C42.4346 2.7536 42.41 2.78503 42.3837 2.81576L37.6608 8.61537L46.9921 6.71008L46.4788 5.45385C46.2085 4.78694 45.6936 4.18273 44.9865 3.70276C44.2795 3.2228 43.4093 2.88423 42.4575 2.72154ZM5.00311 18.3407V35.3522C5.00311 36.3934 5.58667 37.3919 6.62543 38.1281C7.66418 38.8643 9.07304 39.2779 10.5421 39.2779H43.7758C45.2448 39.2779 46.6537 38.8643 47.6924 38.1281C48.7312 37.3919 49.3148 36.3934 49.3148 35.3522V18.3407H5.00311Z" fill="white"/>
</svg>
